<?xml version="1.0" encoding="UTF-8"?>
<svg id="Layer_2" data-name="Layer 2" xmlns="http://www.w3.org/2000/svg" viewBox="0 0 460 300">
  <defs>
    <style>
      .cls-1 {
        fill: none;
      }

      .cls-1, .cls-2 {
        stroke-width: 0px;
      }

      .cls-2 {
        fill: #0d0d0d;
      }
    </style>
  </defs>
  <g id="Layer_1-2" data-name="Layer 1">
    <g>
      <g>
        <g>
          <path class="cls-2" d="M19.67,220.98v13.5h21.77v12.55h-21.77v14.64h24.63v13.03H3.41v-66.75h40.89v13.03h-24.63Z"/>
          <path class="cls-2" d="M55,233.73c2.25-4.12,5.39-7.29,9.41-9.51,4.02-2.22,8.64-3.33,13.83-3.33,6.66,0,12.22,1.74,16.69,5.23,4.47,3.49,7.4,8.4,8.8,14.74h-17.3c-1.46-4.06-4.28-6.09-8.46-6.09-2.98,0-5.36,1.16-7.13,3.47-1.78,2.31-2.66,5.63-2.66,9.94s.89,7.62,2.66,9.94c1.77,2.32,4.15,3.47,7.13,3.47,4.18,0,7-2.03,8.46-6.09h17.3c-1.39,6.21-4.34,11.09-8.84,14.65-4.5,3.55-10.05,5.32-16.64,5.32-5.2,0-9.81-1.11-13.83-3.33-4.03-2.22-7.16-5.39-9.41-9.51-2.25-4.12-3.38-8.94-3.38-14.45s1.12-10.33,3.38-14.45Z"/>
          <path class="cls-2" d="M128.64,204.34v70.36h-16.26v-70.36h16.26Z"/>
          <path class="cls-2" d="M141.62,213.62c-1.81-1.68-2.71-3.76-2.71-6.23s.9-4.64,2.71-6.33c1.81-1.68,4.14-2.52,6.99-2.52s5.09.84,6.89,2.52c1.81,1.68,2.71,3.79,2.71,6.33s-.9,4.55-2.71,6.23c-1.81,1.68-4.11,2.52-6.89,2.52s-5.18-.84-6.99-2.52ZM156.69,221.65v53.06h-16.26v-53.06h16.26Z"/>
          <path class="cls-2" d="M191.3,223.17c2.79-1.52,6.05-2.28,9.79-2.28,4.37,0,8.33,1.11,11.89,3.33,3.55,2.22,6.36,5.39,8.41,9.51,2.06,4.12,3.09,8.91,3.09,14.36s-1.03,10.25-3.09,14.41c-2.06,4.15-4.87,7.35-8.41,9.6-3.55,2.25-7.51,3.37-11.89,3.37-3.68,0-6.93-.76-9.75-2.28-2.82-1.52-5.02-3.49-6.61-5.89v32.71h-16.26v-78.35h16.26v7.51c1.58-2.47,3.77-4.47,6.56-5.99ZM204.57,238.53c-2.25-2.31-5.03-3.47-8.32-3.47s-5.98,1.17-8.23,3.52c-2.25,2.35-3.38,5.55-3.38,9.6s1.12,7.26,3.38,9.61c2.25,2.34,4.99,3.52,8.23,3.52s5.99-1.19,8.27-3.57c2.28-2.38,3.42-5.59,3.42-9.65s-1.13-7.24-3.38-9.55Z"/>
          <path class="cls-2" d="M242.27,273.09c-3.61-1.58-6.47-3.76-8.56-6.51-2.09-2.76-3.27-5.85-3.52-9.27h16.07c.19,1.84,1.05,3.33,2.57,4.47,1.52,1.14,3.39,1.71,5.61,1.71,2.03,0,3.6-.4,4.71-1.19,1.11-.79,1.66-1.82,1.66-3.09,0-1.52-.79-2.65-2.38-3.38-1.59-.73-4.15-1.54-7.7-2.43-3.8-.89-6.98-1.82-9.51-2.8-2.54-.98-4.72-2.53-6.56-4.66-1.84-2.12-2.76-4.99-2.76-8.6,0-3.04.84-5.82,2.52-8.32,1.68-2.5,4.15-4.48,7.42-5.94,3.26-1.46,7.15-2.19,11.65-2.19,6.66,0,11.9,1.65,15.74,4.94,3.83,3.3,6.04,7.67,6.61,13.12h-15.02c-.25-1.84-1.06-3.29-2.43-4.38-1.36-1.08-3.15-1.62-5.37-1.62-1.9,0-3.36.37-4.37,1.09-1.01.73-1.52,1.73-1.52,3,0,1.52.81,2.66,2.43,3.42,1.62.76,4.14,1.52,7.56,2.28,3.93,1.01,7.13,2.01,9.6,2.99,2.47.98,4.64,2.57,6.51,4.75,1.87,2.19,2.84,5.12,2.9,8.8,0,3.11-.87,5.88-2.61,8.32-1.74,2.44-4.25,4.36-7.51,5.75s-7.05,2.09-11.36,2.09c-4.63,0-8.75-.79-12.36-2.38Z"/>
          <path class="cls-2" d="M296.23,272.14c-4.15-2.22-7.42-5.39-9.79-9.51-2.38-4.12-3.57-8.94-3.57-14.45s1.2-10.25,3.61-14.4c2.41-4.15,5.71-7.34,9.89-9.56,4.18-2.22,8.87-3.33,14.07-3.33s9.89,1.11,14.07,3.33c4.18,2.22,7.48,5.4,9.89,9.56,2.41,4.15,3.61,8.95,3.61,14.4s-1.22,10.26-3.66,14.41c-2.44,4.15-5.77,7.34-9.98,9.55-4.22,2.22-8.92,3.33-14.12,3.33s-9.87-1.11-14.03-3.33ZM318.19,257.97c2.19-2.28,3.28-5.55,3.28-9.79s-1.06-7.51-3.18-9.79c-2.12-2.28-4.74-3.42-7.84-3.42s-5.8,1.13-7.89,3.37c-2.09,2.25-3.14,5.53-3.14,9.84s1.03,7.51,3.09,9.79c2.06,2.28,4.64,3.42,7.75,3.42s5.75-1.14,7.94-3.42Z"/>
          <path class="cls-2" d="M386.89,258.92h-30.24l-5.8,15.78h-7.04l24.25-65.61h7.51l24.15,65.61h-7.04l-5.8-15.78ZM384.89,253.41l-13.12-35.94-13.12,35.94h26.24Z"/>
          <path class="cls-2" d="M410.28,211.57c-.95-.95-1.43-2.12-1.43-3.52s.48-2.55,1.43-3.47,2.09-1.38,3.42-1.38,2.47.46,3.42,1.38,1.43,2.08,1.43,3.47-.48,2.57-1.43,3.52-2.09,1.43-3.42,1.43-2.47-.48-3.42-1.43ZM417.03,222.79v51.92h-6.66v-51.92h6.66Z"/>
          <path class="cls-2" d="M445.51,224.5c3.01-1.78,6.7-2.66,11.08-2.66v6.94h-1.81c-4.82,0-8.69,1.3-11.6,3.9-2.92,2.6-4.37,6.94-4.37,13.03v29h-6.66v-51.92h6.66v9.22c1.46-3.23,3.69-5.73,6.7-7.51Z"/>
        </g>
        <path class="cls-2" d="M170.94,31.45c87.22,0,158.86,66.66,166.79,151.8.48-5.18.74-10.42.74-15.72C338.47,75.01,263.47,0,170.94,0S3.41,75.01,3.41,167.53c0,5.3.26,10.55.74,15.72C12.08,98.11,83.72,31.45,170.94,31.45Z"/>
      </g>
      <rect class="cls-1" width="460" height="300"/>
    </g>
  </g>
</svg>