<?xml version="1.0" encoding="UTF-8"?>
<svg id="Layer_1" xmlns="http://www.w3.org/2000/svg" version="1.1" viewBox="0 0 841.9 135.3">
  <!-- Generator: Adobe Illustrator 30.0.0, SVG Export Plug-In . SVG Version: 2.1.1 Build 123)  -->
  <defs>
    <style>
      .st0 {
        fill: #fff;
      }
    </style>
  </defs>
  <path class="st0" d="M94.4,95.1v16.3h-60.8V24.8h60.5v16.3h-42.4v19h39.2v16h-39.2v19.1h42.6Z"/>
  <path class="st0" d="M278.8,94.5v16.8h-58V24.8h18.1v69.7h39.8Z"/>
  <path class="st0" d="M320.4,24.8v86.6h-18.1V24.8h18.1Z"/>
  <path class="st0" d="M410.1,52.2c0,17.1-12.8,27.4-29.9,27.4h-19.8v31.7h-18.1V24.8h37.9c17.1,0,29.9,10.4,29.9,27.4ZM391.9,52.2c0-6.6-4.6-11.2-12-11.2h-19.6v22.4h19.6c7.4,0,12-4.6,12-11.2Z"/>
  <path class="st0" d="M673.8,86.5h-40.5l-10,24.9h-10.7l35.8-86.6h10.5l35.6,86.6h-10.7l-9.9-24.9ZM670.3,77.9l-16.6-41.6-16.8,41.6h33.5Z"/>
  <path class="st0" d="M723.5,24.8v86.6h-9.8V24.8h9.8Z"/>
  <path class="st0" d="M780,73.3h-20.4v38h-9.9V24.8h37.2c17.8,0,27.6,10.5,27.6,24.4s-8.2,22.6-23.8,24l26.9,38.2h-11.8l-25.8-38ZM759.7,64.5h27.1c11.4,0,17.9-6.1,17.9-15.3s-6.4-15.4-17.9-15.4h-27.1v30.7Z"/>
  <path class="st0" d="M447.5,48.1c0-6.2,6.1-10.1,14.7-10.1s15,4.4,17.1,11.1l16.9-2c-2.4-13.8-14.7-24.6-33.9-24.6s-33,11-33,27c0,34.7,49.7,19.6,49.7,37.7s-6.8,10.5-15.7,10.5-16.3-4.5-18.5-12.2l-17.7,2.1h0c2.9,16.8,18.3,25.6,36.2,25.6s33.9-9.5,33.9-26.6c0-35.3-49.7-19.8-49.7-38.4Z"/>
  <path class="st0" d="M147.5,96.1c-17.4-11.9-21.8-35.7-9.8-53,9.8-14.2,27.5-19.8,43.2-14.7-20.5-12.1-47.2-6.5-60.9,13.4-14.3,20.8-9,49.2,11.8,63.5,20.8,14.3,49.2,9,63.5-11.8.7-1,1.3-2,1.9-3-12.6,13.7-33.8,16.4-49.6,5.5Z"/>
  <path class="st0" d="M604.8,67.8c0,26.7-19.6,45.3-44.2,45.3s-44.2-18.6-44.2-45.3,19.6-45.3,44.2-45.3,44.2,18.5,44.2,45.3ZM533.8,67.8c0,17,10.5,29.1,26.8,29.1s26.8-12.1,26.8-29.1-10.5-29.1-26.8-29.1-26.8,12-26.8,29.1Z"/>
</svg>