<?xml version="1.0" encoding="UTF-8"?>
<svg id="Layer_1" xmlns="http://www.w3.org/2000/svg" version="1.1" viewBox="0 0 841.9 595.3">
  <!-- Generator: Adobe Illustrator 30.0.0, SVG Export Plug-In . SVG Version: 2.1.1 Build 123)  -->
  <defs>
    <style>
      .st0 {
        fill: #fff;
      }
    </style>
  </defs>
  <path class="st0" d="M118.4,492.4v15.2h-56.9v-81h56.7v15.2h-39.7v17.7h36.7v15h-36.7v17.9h39.9Z"/>
  <path class="st0" d="M291,491.9v15.8h-54.2v-81h17v65.3h37.3Z"/>
  <path class="st0" d="M329.9,426.6v81h-17v-81h17Z"/>
  <path class="st0" d="M413.8,452.3c0,16-12,25.7-28,25.7h-18.5v29.6h-17v-81h35.5c16,0,28,9.7,28,25.7ZM396.8,452.3c0-6.2-4.3-10.5-11.2-10.5h-18.3v20.9h18.3c6.9,0,11.2-4.3,11.2-10.5Z"/>
  <path class="st0" d="M660.6,484.4h-37.9l-9.4,23.3h-10l33.5-81h9.8l33.3,81h-10l-9.3-23.3ZM657.3,476.3l-15.5-38.9-15.8,38.9h31.3Z"/>
  <path class="st0" d="M707.1,426.6v81h-9.1v-81h9.1Z"/>
  <path class="st0" d="M760,472h-19.1v35.6h-9.3v-81h34.8c16.6,0,25.8,9.8,25.8,22.8s-7.7,21.2-22.3,22.5l25.1,35.7h-11l-24.1-35.6ZM740.9,463.8h25.4c10.7,0,16.8-5.7,16.8-14.3s-6-14.4-16.8-14.4h-25.4v28.8Z"/>
  <path class="st0" d="M448.8,448.4c0-5.8,5.7-9.5,13.8-9.5s14.1,4.1,16,10.4l15.8-1.9c-2.2-12.9-13.8-23-31.7-23s-30.9,10.3-30.9,25.2c0,32.5,46.5,18.3,46.5,35.3s-6.4,9.8-14.7,9.8-15.2-4.2-17.3-11.4l-16.6,2h0c2.8,15.8,17.1,23.9,33.8,23.9s31.7-8.9,31.7-24.9c0-33.1-46.5-18.5-46.5-35.9Z"/>
  <path class="st0" d="M168.1,493.3c-16.2-11.2-20.4-33.4-9.2-49.6,9.2-13.3,25.8-18.5,40.4-13.7-19.2-11.4-44.1-6.1-57,12.6-13.4,19.4-8.4,46,11,59.4,19.4,13.4,46,8.4,59.4-11,.6-.9,1.2-1.8,1.7-2.8-11.8,12.8-31.6,15.4-46.4,5.2Z"/>
  <path class="st0" d="M596,466.8c0,25-18.4,42.4-41.4,42.4s-41.4-17.4-41.4-42.4,18.4-42.4,41.4-42.4,41.4,17.3,41.4,42.4ZM529.5,466.8c0,15.9,9.9,27.2,25,27.2s25-11.4,25-27.2-9.9-27.2-25-27.2-25,11.2-25,27.2Z"/>
  <path class="st0" d="M774.9,399h9c0-200.5-162.6-363.1-363.1-363.1S57.7,198.5,57.7,399c0,0,0,0,0,0h0s0,0,0,0h0s0,0,0,0h0s0,0,0,0h16.5c0-32,4.3-63.1,12.5-92.7,38.1-108.9,141.1-188.2,262.2-188.2s283.9,127.4,283.9,280.9h8.3c0-160.8-131.3-291.1-292.1-291.1s-92.7,11.5-132.4,31.8c45.6-28.3,99.1-44.7,156.4-44.7,166.1,0,307.3,137.9,307.3,304h8.5c0-174-141.7-315.1-315.8-315.1s-92.9,10.6-133.4,29.6c46.6-26.5,100.3-41.7,157.4-41.7,178.8,0,330.7,148.4,330.7,327.2h8.8c0-187.3-152.2-339.1-339.4-339.1s-92.3,9.7-133.2,27.2c47.2-24.5,100.6-38.4,157.2-38.4,191.4,0,354.1,158.9,354.1,350.3Z"/>
</svg>